<svg width="385" height="364" viewBox="0 0 385 364" fill="none" xmlns="http://www.w3.org/2000/svg">
<path fill-rule="evenodd" clip-rule="evenodd" d="M212.466 20.8333C212.466 9.3275 203.139 0 191.633 0H20.8333C9.3275 0 0 9.3275 0 20.8333V209.864C0 221.37 9.3275 230.697 20.8333 230.697H191.633C203.139 230.697 212.466 221.37 212.466 209.864V20.8333Z" fill="#79CAD0"/>
<path fill-rule="evenodd" clip-rule="evenodd" d="M180.265 39.7865C180.265 28.2806 170.938 18.9531 159.432 18.9531H53.0355C41.5296 18.9531 32.2021 28.2806 32.2021 39.7865V50.8327C32.2021 62.3385 41.5296 71.666 53.0355 71.666H159.432C170.938 71.666 180.265 62.3385 180.265 50.8327V39.7865Z" fill="#BBE4E7"/>
<path fill-rule="evenodd" clip-rule="evenodd" d="M180.264 109.243C180.264 103.717 178.069 98.4179 174.163 94.5109C170.255 90.6042 164.956 88.4092 159.431 88.4092H132.464C126.939 88.4092 121.64 90.6042 117.733 94.5109C113.826 98.4179 111.631 103.717 111.631 109.243V120.289C111.631 125.814 113.826 131.113 117.733 135.02C121.64 138.927 126.939 141.122 132.464 141.122H159.431C164.956 141.122 170.255 138.927 174.163 135.02C178.069 131.113 180.264 125.814 180.264 120.289V109.243Z" fill="#BBE4E7"/>
<path fill-rule="evenodd" clip-rule="evenodd" d="M180.265 178.7C180.265 167.193 170.938 157.866 159.432 157.866H53.0355C41.5296 157.866 32.2021 167.193 32.2021 178.7V189.746C32.2021 201.252 41.5296 210.579 53.0355 210.579H159.432C170.938 210.579 180.265 201.252 180.265 189.746V178.7Z" fill="#BBE4E7"/>
<path fill-rule="evenodd" clip-rule="evenodd" d="M257.972 259.029L212.372 18.9531L212.467 20.8335V209.864C212.467 221.37 203.139 230.697 191.633 230.697H20.8338L20.1592 230.663L257.972 259.029V259.029Z" fill="#BBE4E7"/>
<path fill-rule="evenodd" clip-rule="evenodd" d="M96.1063 106.307C97.2555 105.973 98.2063 105.161 98.7155 104.078C99.2246 102.994 99.2434 101.744 98.7672 100.647C93.2263 88.2353 80.8442 80.0049 66.9638 80.0049C47.7784 80.0049 32.2021 95.5807 32.2021 114.766C32.2021 133.952 47.7784 149.528 66.9638 149.528C69.6463 149.528 72.3147 149.217 74.9159 148.606C76.0738 148.327 77.0559 147.562 77.6101 146.507C78.1642 145.453 78.2371 144.211 77.8101 143.099C76.3242 139.152 74.0767 133.296 72.6709 129.634C71.9951 127.873 70.2205 126.787 68.3451 126.984C67.8888 127.059 67.4267 127.085 66.9638 127.085C60.1647 127.085 54.6451 121.565 54.6451 114.766C54.6451 107.967 60.1647 102.448 66.9638 102.448C71.3784 102.448 75.3655 104.797 77.548 108.462C78.5138 110.062 80.4355 110.814 82.2309 110.292C86.0105 109.237 92.0505 107.484 96.1063 106.307V106.307Z" fill="#BBE4E7"/>
<path d="M333.773 363.741C358.355 363.741 378.283 360.372 378.283 356.216C378.283 352.06 358.355 348.691 333.773 348.691C309.19 348.691 289.262 352.06 289.262 356.216C289.262 360.372 309.19 363.741 333.773 363.741Z" fill="black" fill-opacity="0.25"/>
<path fill-rule="evenodd" clip-rule="evenodd" d="M372.662 325.424C372.662 325.424 371.211 357.215 360.498 356.084C350.399 355.017 351.175 325.667 351.175 325.667L372.662 325.424V325.424Z" fill="#F8D576"/>
<path fill-rule="evenodd" clip-rule="evenodd" d="M318.825 325.424C318.825 325.424 320.276 357.215 330.989 356.084C341.088 355.017 340.312 325.667 340.312 325.667L318.825 325.424V325.424Z" fill="#F8D576"/>
<path fill-rule="evenodd" clip-rule="evenodd" d="M293.681 214.822C293.681 214.822 288.541 221.268 280.617 227.988C264.169 241.939 238.924 262.929 245.184 270.937C250.046 277.157 275.615 255.874 292.728 242.448C300.65 236.232 308.519 232.529 308.519 232.529L293.681 214.822V214.822Z" fill="#F8D576"/>
<path fill-rule="evenodd" clip-rule="evenodd" d="M326.425 197.74C314.659 187.7 284.068 218.185 281.984 220.287C281.883 220.39 281.824 220.528 281.82 220.672C282.609 223.949 309.445 242.561 309.324 242.035C309.148 241.267 338.609 208.137 326.425 197.74Z" fill="#EC7553"/>
<path fill-rule="evenodd" clip-rule="evenodd" d="M315.462 335.203C314.862 335.388 314.21 335.292 313.689 334.942C313.168 334.591 312.832 334.024 312.777 333.398C311.248 315.278 302.996 207.329 322.002 194.996C336.08 185.86 330.213 166.853 343.125 165.02C357.15 163.029 355.51 183.543 369.127 194.996C385.069 208.403 382.673 234.708 382.379 260.252C382.033 290.357 378.881 323.456 377.958 332.564C377.895 333.17 377.569 333.717 377.068 334.062C376.567 334.407 375.94 334.516 375.352 334.36C354.415 328.905 332.899 330.001 315.462 335.203V335.203Z" fill="#FF9577"/>
<path fill-rule="evenodd" clip-rule="evenodd" d="M285.684 273.225L240.858 284.821L231.559 249.976L276.652 238.311L285.684 273.225V273.225Z" fill="#808080"/>
<path fill-rule="evenodd" clip-rule="evenodd" d="M266.757 272.441C268.896 271.734 268.804 260.929 268.804 260.929C268.804 260.929 268.657 252.11 259.406 251.692C250.155 251.275 248.257 253.733 247.455 255.768C246.653 257.803 247.205 262.203 251.185 265.286C255.166 268.369 255.038 265.687 260.246 268.495C265.454 271.303 263.549 273.501 266.757 272.441Z" fill="#F8D576"/>
<path fill-rule="evenodd" clip-rule="evenodd" d="M276.652 238.311L281.752 236.992C286.907 235.659 292.171 238.743 293.529 243.892C294.847 248.893 296.467 255.041 297.789 260.056C298.446 262.546 298.082 265.194 296.78 267.415C295.478 269.636 293.344 271.246 290.851 271.889L285.684 273.226L276.652 238.311V238.311Z" fill="#FF9577"/>
<path fill-rule="evenodd" clip-rule="evenodd" d="M231.558 249.976L226.878 251.186C221.722 252.52 218.614 257.77 219.924 262.932C221.196 267.944 222.76 274.108 224.036 279.134C224.669 281.63 226.271 283.77 228.486 285.081C230.702 286.391 233.349 286.765 235.841 286.119L241.009 284.782L231.558 249.976V249.976Z" fill="#FF9577"/>
<path fill-rule="evenodd" clip-rule="evenodd" d="M287.7 245.132C286.728 244.613 285.52 244.943 284.944 245.883C284.444 246.699 283.817 247.724 283.192 248.745C282.748 249.47 282.79 250.392 283.297 251.074C283.804 251.757 284.675 252.063 285.497 251.848C287.034 251.445 288.727 251.002 290.273 250.597C291.103 250.379 291.715 249.676 291.814 248.824C291.914 247.972 291.482 247.146 290.725 246.743C289.643 246.166 288.56 245.589 287.7 245.132V245.132Z" fill="#EC7553"/>
<path fill-rule="evenodd" clip-rule="evenodd" d="M291.856 261.593C291.257 262.458 290.107 262.74 289.175 262.25C288.357 261.82 287.319 261.275 286.271 260.724C285.508 260.323 285.071 259.494 285.171 258.638C285.272 257.781 285.889 257.075 286.724 256.862C288.277 256.465 289.979 256.03 291.541 255.63C292.383 255.415 293.271 255.746 293.767 256.46C294.264 257.174 294.264 258.122 293.769 258.836C293.077 259.833 292.393 260.82 291.856 261.593V261.593Z" fill="#EC7553"/>
<path fill-rule="evenodd" clip-rule="evenodd" d="M230.841 265.557C230.676 264.92 230.265 264.375 229.698 264.041C229.132 263.707 228.456 263.612 227.819 263.777C227.819 263.777 227.818 263.777 227.818 263.777C227.182 263.942 226.636 264.353 226.303 264.92C225.969 265.486 225.874 266.162 226.039 266.799C226.561 268.816 227.303 271.685 227.825 273.702C227.989 274.339 228.4 274.884 228.967 275.217C229.533 275.551 230.209 275.646 230.846 275.481C230.846 275.481 230.846 275.481 230.847 275.481C231.483 275.316 232.028 274.905 232.362 274.339C232.696 273.772 232.791 273.097 232.626 272.46C232.104 270.443 231.362 267.574 230.841 265.557Z" fill="#EC7553"/>
<path fill-rule="evenodd" clip-rule="evenodd" d="M225.259 268.122C224.623 268.286 224.078 268.697 223.744 269.263C223.411 269.83 223.316 270.506 223.48 271.143C223.48 271.143 223.48 271.143 223.481 271.144C223.645 271.78 224.056 272.325 224.622 272.659C225.189 272.993 225.865 273.088 226.502 272.923C228.519 272.401 231.388 271.659 233.405 271.137C234.042 270.973 234.587 270.562 234.92 269.995C235.254 269.429 235.349 268.753 235.184 268.116C235.184 268.116 235.184 268.115 235.184 268.115C235.019 267.478 234.609 266.933 234.042 266.6C233.475 266.266 232.799 266.171 232.163 266.336C230.146 266.858 227.277 267.6 225.259 268.122Z" fill="#EC7553"/>
<path fill-rule="evenodd" clip-rule="evenodd" d="M355.269 232.884C355.269 232.884 347.514 235.681 338.603 241.024C320.106 252.117 292.118 269.279 286.546 260.777C282.219 254.174 310.589 236.8 328.802 224.909C337.234 219.405 343.269 213.144 343.269 213.144L355.269 232.884V232.884Z" fill="#F8D576"/>
<path fill-rule="evenodd" clip-rule="evenodd" d="M383.786 200.207C391.944 213.988 353.85 240.216 353.836 240.226C353.835 240.226 353.834 240.227 353.833 240.228C352.899 240.909 338.497 219.37 337.219 209.477C337.118 208.695 375.627 186.425 383.786 200.207Z" fill="#EC7553"/>
<path fill-rule="evenodd" clip-rule="evenodd" d="M347.167 174.718C357.008 174.021 368.254 128.049 368.254 128.049C368.254 128.049 377.127 90.4552 338.304 78.7211C299.481 66.9865 288.776 75.3765 283.18 83.1523C277.585 90.9281 275.19 110.202 288.768 127.576C302.345 144.951 304.691 133.427 323.776 150.955C342.862 168.483 332.409 175.764 347.167 174.718V174.718Z" fill="#F8D576"/>
</svg>
