<svg width="217" height="250" viewBox="0 0 217 250" fill="none" xmlns="http://www.w3.org/2000/svg">
<path fill-rule="evenodd" clip-rule="evenodd" d="M69.8642 185.148C69.8642 185.148 63.4036 183.985 55.6872 180.915C39.6688 174.541 15.3783 164.59 12.1864 172.306C9.70735 178.299 34.3259 188.368 50.2321 195.431C57.5958 198.701 63.1868 202.931 63.1868 202.931L69.8642 185.148Z" fill="#F8D576"/>
<path fill-rule="evenodd" clip-rule="evenodd" d="M92.3181 205.367C95.8916 192.707 61.5907 179.517 61.3815 179.437C61.3796 179.436 61.3772 179.435 61.3753 179.433C60.6482 179.025 53.738 206.962 54.6066 207.444C55.1591 207.751 88.7343 218.066 92.3181 205.367Z" fill="#EC7553"/>
<path fill-rule="evenodd" clip-rule="evenodd" d="M133.224 245.703C132.189 252.34 78.0937 251.24 77.2814 242.737C75.0925 219.824 78.9902 198.377 85.9123 193.577C97.0124 185.879 92.1528 170.237 102.401 168.585C113.533 166.79 112.439 183.758 123.384 193.075C136.198 203.984 136.759 223.04 133.224 245.703Z" fill="#FF9577"/>
<path fill-rule="evenodd" clip-rule="evenodd" d="M154.685 205.41C154.685 205.41 160.11 201.584 167.714 198.222C183.499 191.242 207.627 180.865 204.761 173.013C202.535 166.914 178.092 177.445 161.926 183.846C154.442 186.81 147.592 187.805 147.592 187.805L154.685 205.41Z" fill="#F8D576"/>
<path fill-rule="evenodd" clip-rule="evenodd" d="M121.016 206.475C125.35 218.659 159.455 208.505 160.706 208.128C160.735 208.119 160.762 208.107 160.788 208.092C162.142 206.76 151.865 180.432 150.097 181.443C149.548 181.757 116.602 194.063 121.016 206.475Z" fill="#EC7553"/>
<path fill-rule="evenodd" clip-rule="evenodd" d="M105.714 176.554C113.532 175.873 122.004 137.769 122.004 137.769C122.004 137.769 128.674 106.613 97.6825 97.3304C66.6915 88.0485 58.2655 95.0946 53.8958 101.579C49.5266 108.064 47.8196 124.014 58.7942 138.225C69.7688 152.436 71.516 142.89 86.8717 157.169C102.227 171.448 93.9902 177.575 105.714 176.554Z" fill="#F8D576"/>
<path fill-rule="evenodd" clip-rule="evenodd" d="M0.0105428 119.815C-0.375727 122.735 9.96789 151.107 12.0128 152.585C13.5508 153.696 32.6911 143.758 32.8487 142.188C33.0504 140.181 23.9654 112.684 21.6473 108.271C20.9619 106.966 0.44983 116.488 0.0105428 119.815Z" fill="#BBE4E7"/>
<path d="M5.82715 123.816L19.2865 116.448" stroke="#FCFBFE" stroke-width="0.004125" stroke-miterlimit="1.5" stroke-linecap="round" stroke-linejoin="round"/>
<path d="M8.09961 130.113L21.5585 122.745" stroke="#FCFBFE" stroke-width="0.004125" stroke-miterlimit="1.5" stroke-linecap="round" stroke-linejoin="round"/>
<path d="M10.7246 136.617L24.1839 129.249" stroke="#FCFBFE" stroke-width="0.004125" stroke-miterlimit="1.5" stroke-linecap="round" stroke-linejoin="round"/>
<path d="M13.3555 143.772L26.8148 136.404" stroke="#FCFBFE" stroke-width="0.004125" stroke-miterlimit="1.5" stroke-linecap="round" stroke-linejoin="round"/>
<path fill-rule="evenodd" clip-rule="evenodd" d="M216.255 129.894C216.64 132.814 206.297 161.186 204.252 162.664C202.714 163.775 183.574 153.837 183.416 152.268C183.215 150.26 192.3 122.763 194.617 118.351C195.303 117.045 215.815 126.567 216.255 129.894Z" fill="#BBE4E7"/>
<path d="M210.438 133.895L196.979 126.527" stroke="#FCFBFE" stroke-width="0.004125" stroke-miterlimit="1.5" stroke-linecap="round" stroke-linejoin="round"/>
<path d="M208.166 140.192L194.707 132.824" stroke="#FCFBFE" stroke-width="0.004125" stroke-miterlimit="1.5" stroke-linecap="round" stroke-linejoin="round"/>
<path d="M205.539 146.696L192.08 139.328" stroke="#FCFBFE" stroke-width="0.004125" stroke-miterlimit="1.5" stroke-linecap="round" stroke-linejoin="round"/>
<path d="M202.91 153.851L189.45 146.483" stroke="#FCFBFE" stroke-width="0.004125" stroke-miterlimit="1.5" stroke-linecap="round" stroke-linejoin="round"/>
<path fill-rule="evenodd" clip-rule="evenodd" d="M16.3842 57.872C14.0401 59.533 0.715693 86.5298 1.0319 89.0969C1.27001 91.0273 21.2013 99.1139 22.4278 98.1832C23.996 96.9927 37.5396 71.5519 39.1358 66.8068C39.6083 65.4037 19.0541 55.9804 16.3842 57.872Z" fill="#BBE4E7"/>
<path d="M17.4268 65.0381L31.7131 70.47" stroke="#FCFBFE" stroke-width="0.004125" stroke-miterlimit="1.5" stroke-linecap="round" stroke-linejoin="round"/>
<path d="M14.4541 71.0112L28.7409 76.4436" stroke="#FCFBFE" stroke-width="0.004125" stroke-miterlimit="1.5" stroke-linecap="round" stroke-linejoin="round"/>
<path d="M11.5693 77.397L25.8561 82.8289" stroke="#FCFBFE" stroke-width="0.004125" stroke-miterlimit="1.5" stroke-linecap="round" stroke-linejoin="round"/>
<path d="M8.22461 84.2217L22.5114 89.6536" stroke="#FCFBFE" stroke-width="0.004125" stroke-miterlimit="1.5" stroke-linecap="round" stroke-linejoin="round"/>
<path fill-rule="evenodd" clip-rule="evenodd" d="M199.882 67.9511C202.226 69.6121 215.55 96.6094 215.234 99.176C214.996 101.106 195.065 109.193 193.838 108.262C192.27 107.072 178.726 81.631 177.13 76.8864C176.658 75.4829 197.212 66.0595 199.882 67.9511Z" fill="#BBE4E7"/>
<path d="M198.838 75.1177L184.552 80.5496" stroke="#FCFBFE" stroke-width="0.004125" stroke-miterlimit="1.5" stroke-linecap="round" stroke-linejoin="round"/>
<path d="M201.811 81.0913L187.524 86.5232" stroke="#FCFBFE" stroke-width="0.004125" stroke-miterlimit="1.5" stroke-linecap="round" stroke-linejoin="round"/>
<path d="M204.695 87.4766L190.408 92.9085" stroke="#FCFBFE" stroke-width="0.004125" stroke-miterlimit="1.5" stroke-linecap="round" stroke-linejoin="round"/>
<path d="M208.041 94.3008L193.754 99.7327" stroke="#FCFBFE" stroke-width="0.004125" stroke-miterlimit="1.5" stroke-linecap="round" stroke-linejoin="round"/>
<path fill-rule="evenodd" clip-rule="evenodd" d="M53.9351 11.678C51.2421 12.6063 31.2915 34.7619 30.9165 37.32C30.6349 39.2443 47.6611 52.7083 49.0864 52.1635C50.9089 51.4667 70.6593 30.8694 73.4489 26.7629C74.274 25.5482 57.0026 10.6215 53.9351 11.678Z" fill="#BBE4E7"/>
<path d="M53.043 18.8667L65.3435 28.167" stroke="#FCFBFE" stroke-width="0.004125" stroke-miterlimit="1.5" stroke-linecap="round" stroke-linejoin="round"/>
<path d="M48.6045 23.7622L60.905 33.0625" stroke="#FCFBFE" stroke-width="0.004125" stroke-miterlimit="1.5" stroke-linecap="round" stroke-linejoin="round"/>
<path d="M44.1436 29.0786L56.4436 38.3789" stroke="#FCFBFE" stroke-width="0.004125" stroke-miterlimit="1.5" stroke-linecap="round" stroke-linejoin="round"/>
<path d="M39.1221 34.6855L51.4226 43.9859" stroke="#FCFBFE" stroke-width="0.004125" stroke-miterlimit="1.5" stroke-linecap="round" stroke-linejoin="round"/>
<path fill-rule="evenodd" clip-rule="evenodd" d="M162.33 21.7581C165.023 22.6859 184.974 44.8416 185.349 47.3997C185.631 49.3239 168.604 62.788 167.179 62.2431C165.357 61.5463 145.606 40.9495 142.817 36.8426C141.992 35.6279 159.263 20.7011 162.33 21.7581Z" fill="#BBE4E7"/>
<path d="M163.222 28.9463L150.922 38.2466" stroke="#FCFBFE" stroke-width="0.004125" stroke-miterlimit="1.5" stroke-linecap="round" stroke-linejoin="round"/>
<path d="M167.661 33.8418L155.36 43.1421" stroke="#FCFBFE" stroke-width="0.004125" stroke-miterlimit="1.5" stroke-linecap="round" stroke-linejoin="round"/>
<path d="M172.122 39.1582L159.822 48.4585" stroke="#FCFBFE" stroke-width="0.004125" stroke-miterlimit="1.5" stroke-linecap="round" stroke-linejoin="round"/>
<path d="M177.143 44.7651L164.843 54.0654" stroke="#FCFBFE" stroke-width="0.004125" stroke-miterlimit="1.5" stroke-linecap="round" stroke-linejoin="round"/>
<path fill-rule="evenodd" clip-rule="evenodd" d="M123.444 2.40486C121.032 0.851737 91.8749 -0.856677 89.7448 0.483907C88.1424 1.49266 89.1071 23.6994 90.4231 24.4866C92.1064 25.4935 119.984 28.0416 124.806 27.6341C126.232 27.5134 126.191 4.17338 123.444 2.40486Z" fill="#BBE4E7"/>
<path d="M117.562 6.30127L118.574 22.0707" stroke="#FCFBFE" stroke-width="0.004125" stroke-miterlimit="1.5" stroke-linecap="round" stroke-linejoin="round"/>
<path d="M111.1 5.89941L112.112 21.6693" stroke="#FCFBFE" stroke-width="0.004125" stroke-miterlimit="1.5" stroke-linecap="round" stroke-linejoin="round"/>
<path d="M104.312 5.74902L105.324 21.5189" stroke="#FCFBFE" stroke-width="0.004125" stroke-miterlimit="1.5" stroke-linecap="round" stroke-linejoin="round"/>
<path d="M96.9502 5.33887L97.9627 21.1082" stroke="#FCFBFE" stroke-width="0.004125" stroke-miterlimit="1.5" stroke-linecap="round" stroke-linejoin="round"/>
</svg>
