<svg width="201" height="251" viewBox="0 0 201 251" fill="none" xmlns="http://www.w3.org/2000/svg">
<path fill-rule="evenodd" clip-rule="evenodd" d="M131.551 62.5165C127.557 53.0261 140.661 38.4367 142.99 35.3555C144.785 32.9789 142.433 45.3597 145.522 44.0276C157.631 38.8067 163.133 13.0909 167.871 12.2732C172.609 11.4549 172.042 36.3399 173.949 39.1191C175.855 41.8978 185.479 25.4127 186.371 30.5014C187.282 35.6948 188.552 64.9443 179.415 70.2801C170.279 75.616 135.545 72.0069 131.551 62.5165Z" fill="#EC7553"/>
<path fill-rule="evenodd" clip-rule="evenodd" d="M140.55 63.4942C137.878 57.1446 146.645 47.3833 148.203 45.3219C149.404 43.7319 147.831 52.0154 149.898 51.1241C157.999 47.631 161.68 30.4258 164.85 29.8784C168.02 29.3311 167.641 45.981 168.917 47.8399C170.192 49.6989 176.63 38.6698 177.228 42.0745C177.837 45.549 178.687 65.1186 172.574 68.6886C166.461 72.2586 143.222 69.8438 140.55 63.4942Z" fill="#FF9577"/>
<path fill-rule="evenodd" clip-rule="evenodd" d="M62.178 222.23C75.634 224.429 88.2461 223.558 94.2145 223.04C95.4424 222.933 96.5566 221.858 97.2664 220.87C107.324 206.858 169.224 114.903 179.523 100.553C180.261 99.5249 179.793 98.19 179.34 97.1586C174.66 86.4874 116.891 76.3263 102.144 86.4813C101.245 87.0999 98.2304 90.7718 97.4908 91.7744C87.063 105.909 25.2901 183.744 14.7976 197.968C14.0496 198.982 14.1045 200.406 14.9284 201.355C19.1234 206.156 25.0052 211.468 32.4896 214.512L62.178 222.23Z" fill="#FCFBFE"/>
<path d="M4.52344 250.729L144.424 36.8345L200.918 120.796L161.576 157.827L28.1992 135.579" stroke="#D9D9D9" stroke-width="0.00934167" stroke-miterlimit="1.5" stroke-linecap="round" stroke-linejoin="round"/>
<path d="M146.147 192.508L14.2715 167.852" stroke="#D9D9D9" stroke-width="0.00934167" stroke-miterlimit="1.5" stroke-linecap="round" stroke-linejoin="round"/>
<path d="M191.644 228.124L59.7676 203.469" stroke="#D9D9D9" stroke-width="0.00934167" stroke-miterlimit="1.5" stroke-linecap="round" stroke-linejoin="round"/>
<path d="M119.141 150.617L135.233 120.688L116.178 117.085" stroke="#D9D9D9" stroke-width="0.00934167" stroke-miterlimit="1.5" stroke-linecap="round" stroke-linejoin="round"/>
<path d="M135.234 82.5273L125.706 101.014L175.458 108.952" stroke="#D9D9D9" stroke-width="0.00934167" stroke-miterlimit="1.5" stroke-linecap="round" stroke-linejoin="round"/>
<path d="M160.478 108.169L146.146 130.969" stroke="#D9D9D9" stroke-width="0.00934167" stroke-miterlimit="1.5" stroke-linecap="round" stroke-linejoin="round"/>
<path fill-rule="evenodd" clip-rule="evenodd" d="M90.9318 232.406C94.7293 232.779 98.6842 231.629 100.754 228.721C117.476 205.235 180.211 106.888 191.26 91.4934C191.997 90.4657 192.063 88.589 191.079 88.1008C155.817 70.594 123.084 71.7553 106.002 74.7863C104.941 74.9748 103.408 75.5072 102.669 76.5093C91.4819 91.6735 16.7283 187.555 5.47244 202.814C4.72493 203.828 4.77939 205.25 5.6009 206.199C23.7807 227.07 75.4753 230.888 90.9318 232.406ZM94.2146 223.04C95.4424 222.934 96.5567 221.858 97.2665 220.87C107.324 206.859 167.994 112.955 178.292 98.6054C179.03 97.5772 178.833 96.0589 178.11 95.2109C171.74 87.748 115.348 79.2578 102.144 86.4815C101.19 87.0032 98.2304 90.772 97.4908 91.7745C87.063 105.909 26.6646 184.856 16.1721 199.08C15.4236 200.093 15.479 201.518 16.3029 202.466C32.4054 220.896 80.2042 224.257 94.2146 223.04Z" fill="#ABABAB"/>
<path fill-rule="evenodd" clip-rule="evenodd" d="M62.1776 222.23C62.1776 222.23 62.3373 221.387 62.5453 220.29C63.075 217.499 61.4055 214.766 58.7492 214.076C53.3537 212.673 44.6136 210.401 39.3792 209.04C36.8798 208.391 34.3031 209.764 33.3527 212.252C32.8793 213.491 32.4893 214.512 32.4893 214.512L62.1776 222.23Z" fill="#ABABAB"/>
<path fill-rule="evenodd" clip-rule="evenodd" d="M44.0815 91.355C44.0815 91.355 39.3065 94.3231 32.7075 96.7872C19.008 101.903 -1.91834 109.476 0.141252 116.274C1.74099 121.555 22.9415 113.869 36.936 109.262C43.415 107.129 49.2652 106.633 49.2652 106.633L44.0815 91.355Z" fill="#F8D576"/>
<path fill-rule="evenodd" clip-rule="evenodd" d="M94.1308 167.506C94.1308 167.506 103.821 187.424 97.1493 190.423C90.8592 193.251 81.5811 175.056 81.5811 175.056L94.1308 167.506Z" fill="#F8D576"/>
<path fill-rule="evenodd" clip-rule="evenodd" d="M61.7412 177.133C61.7412 177.133 63.8967 199.338 71.0738 198.133C77.8395 196.998 76.2296 176.477 76.2296 176.477L61.7412 177.133Z" fill="#F8D576"/>
<path fill-rule="evenodd" clip-rule="evenodd" d="M69.2991 91.4418C64.8503 81.2462 35.7703 92.4886 35.5818 92.5616C35.5795 92.5621 35.5776 92.5625 35.5753 92.5625C34.8897 92.7171 45.3366 114.661 46.152 114.472C46.6705 114.351 73.7622 101.671 69.2991 91.4418Z" fill="#EC7553"/>
<path fill-rule="evenodd" clip-rule="evenodd" d="M61.7463 182.774C61.1063 182.948 60.4226 182.84 59.8673 182.478C59.312 182.116 58.9378 181.533 58.8392 180.878C56.7009 166.277 46.9498 94.8583 59.05 85.6806C68.1983 78.7422 63.5406 65.6591 72.1737 63.8787C81.5515 61.9448 81.2056 76.3727 90.8059 83.8677C102.046 92.6423 101.406 111.154 102.154 129.052C103 149.284 101.6 171.349 101.061 178.722C101.01 179.373 100.687 179.972 100.173 180.374C99.6577 180.776 98.9982 180.943 98.354 180.834C85.5748 178.733 73.4322 179.667 61.7463 182.774Z" fill="#FF9577"/>
<path fill-rule="evenodd" clip-rule="evenodd" d="M79.6158 80.6629C79.6158 80.6629 74.0784 80.088 67.3653 77.9791C53.4294 73.6007 32.2801 66.7191 30.0338 73.4526C28.2889 78.6828 49.7231 85.6431 63.6045 90.6127C70.0309 92.9134 75.0135 96.1384 75.0135 96.1384L79.6158 80.6629Z" fill="#F8D576"/>
<path fill-rule="evenodd" clip-rule="evenodd" d="M102.102 99.0009C105.658 88.628 78.1965 75.9781 77.1237 75.4885C77.0971 75.4764 77.0692 75.4675 77.0408 75.4629C75.4471 75.6351 68.3728 98.5224 70.0517 98.8627C70.5735 98.9688 98.4759 109.58 102.102 99.0009Z" fill="#EC7553"/>
<path fill-rule="evenodd" clip-rule="evenodd" d="M75.2568 70.5144C81.8624 69.6478 87.7382 37.0247 87.7382 37.0247C87.7382 37.0247 92.3251 10.359 65.7283 3.63655C39.1318 -3.08634 32.2288 3.19996 28.7464 8.86023C25.2639 14.5205 24.3637 28.1082 34.1571 39.7518C43.9501 51.3954 45.1039 43.2361 58.6144 54.7754C72.1249 66.3142 65.3508 71.8144 75.2568 70.5144Z" fill="#F8D576"/>
</svg>
