<svg width="159" height="251" viewBox="0 0 159 251" fill="none" xmlns="http://www.w3.org/2000/svg">
<path fill-rule="evenodd" clip-rule="evenodd" d="M7.08419 10.9375C6.45368 13.087 12.1955 18.5181 11.2776 21.1993C10.3597 23.8801 2.78987 24.7069 1.57612 27.0241C0.362373 29.3413 4.22159 32.3091 3.99426 35.1036C3.76692 37.8981 -1.05488 40.979 0.211658 43.7901C1.47777 46.6016 10.1426 49.334 11.5918 51.9705C12.8856 54.3244 6.29616 59.6319 8.90502 59.6089C11.5386 59.5855 20.9169 50.2603 27.3906 51.8309C34.3721 53.5244 47.0383 65.2285 50.7945 69.7698C52.7499 72.1338 50.0099 75.9615 49.9273 79.0775C49.8341 82.5778 48.7093 87.208 50.2356 90.7701C52.6592 96.4255 61.9567 108.363 64.4689 113.01C65.3659 114.67 64.58 116.906 65.3076 118.653C66.1586 120.697 68.0727 123.123 69.5755 125.271C71.284 127.712 73.9269 130.872 75.557 133.302C76.9594 135.392 77.3302 138.412 79.3562 139.848C82.5032 142.078 91.3187 143.669 94.4381 146.681C97.2244 149.372 96.2189 154.734 98.0733 157.92C99.9116 161.079 104.539 163.802 105.564 165.8C106.218 167.075 103.452 168.701 104.222 169.905C105.463 171.849 111.669 173.764 113.013 177.46C114.97 182.839 116.406 197.14 115.963 202.18C115.728 204.845 112.028 205.783 110.353 207.7C108.724 209.566 107.11 212.021 105.914 213.686C104.972 214.998 103.462 216.093 103.178 217.69C102.894 219.286 102.871 222.67 104.211 223.268C105.55 223.865 109.134 222.561 111.214 221.275C113.747 219.708 117.299 216.583 119.408 213.866C121.429 211.263 121.972 206.4 123.871 204.969C125.743 203.559 129.206 206.765 130.802 205.281C132.398 203.797 133.995 199.22 133.448 196.065C132.789 192.271 126.148 186.487 126.854 182.514C127.559 178.54 134.611 172.748 137.678 172.225C140.746 171.703 143.074 177.668 145.26 179.377C146.934 180.686 149.844 180.821 150.794 182.477C151.744 184.134 149.692 188.482 150.959 189.316C152.225 190.149 158.741 190.099 158.392 187.478C157.897 183.759 152.837 172.848 147.987 167.001C142.756 160.695 130.622 153.607 127.006 149.638C125.575 148.068 125.677 144.565 126.292 143.192C126.907 141.819 129.906 142.601 130.696 141.401C131.487 140.202 132.556 136.867 131.034 135.996C129.091 134.884 122.379 136.117 119.04 134.73C115.783 133.376 112.099 129.533 111.005 127.67C110.27 126.418 113.165 124.414 112.477 123.547C111.789 122.681 107.528 124.323 106.876 122.471C104.913 116.893 104.275 98.6392 100.698 90.08C97.5369 82.5169 87.7988 76.4073 85.4139 71.1138C83.668 67.2397 85.4041 61.1888 86.3867 58.3198C87.1142 56.1967 90.9317 56.1188 91.3111 53.8999C91.7142 51.5431 88.3702 46.565 88.8061 44.1792C89.2267 41.8769 91.6938 39.916 93.9263 39.5827C97.1789 39.0973 104.664 40.5491 108.32 41.2673C110.927 41.779 114.744 44.1201 115.865 43.8919C116.987 43.6633 114.928 41.2524 115.047 39.8964C115.237 37.7205 117.201 33.0941 117.005 30.8357C116.846 28.9948 113.698 27.7193 113.873 26.3455C114.048 24.9717 117.55 23.8231 118.053 22.5931C118.533 21.4211 118 19.5177 116.894 18.9664C114.297 17.6704 105.555 16.7819 102.469 14.8172C100.077 13.2948 98.7605 9.28998 98.3773 7.17794C98.0584 5.42054 101.272 2.74015 100.169 2.14584C99.0657 1.55152 94.596 3.79937 91.7594 3.61247C88.9044 3.4243 85.2151 0.625987 83.0413 1.01808C80.9288 1.39954 80.8143 5.92843 78.7168 5.9659C76.6196 6.00336 72.3581 1.03937 70.4572 1.24202C68.5563 1.44466 68.4682 6.07829 67.3111 7.1822C66.3647 8.08517 64.2424 6.76797 63.5132 7.8672C62.7362 9.03922 64.5817 13.8253 62.6472 14.2148C60.7123 14.6039 54.8432 10.4697 51.9057 10.2032C49.4931 9.98477 46.4491 11.3982 45.0221 12.6166C43.7334 13.7171 44.1349 16.4363 43.3443 17.5146C42.6546 18.4559 40.8866 19.9298 40.2808 19.0868C39.6745 18.2439 40.483 14.3481 39.7094 12.4557C38.9359 10.5633 36.215 9.2274 35.6395 7.73267C35.1277 6.40397 37.5574 3.02028 36.2555 3.48773C34.3176 4.18422 27.5451 11.1078 24.0124 11.9103C20.8854 12.6209 17.8815 8.46449 15.0602 8.30272C12.2747 8.14264 7.71469 8.78847 7.08419 10.9375Z" fill="#FF9577"/>
<path fill-rule="evenodd" clip-rule="evenodd" d="M57.745 212.822C56.1536 214.013 52.7916 219.444 53.618 221.926C54.4443 224.409 60.2287 225.7 62.703 227.718C64.8998 229.51 66.3225 232.176 68.4648 234.037C71.1277 236.35 76.692 239.483 78.6802 241.596C79.8956 242.887 79.1101 245.495 80.3929 246.714C82.0387 248.278 86.3594 251.019 88.5545 250.98C90.7495 250.942 92.8101 248.283 93.5632 246.484C94.3159 244.685 93.3167 241.804 93.0719 240.187C92.8948 239.016 91.4699 237.77 92.0948 236.778C93.5555 234.461 100.722 228.818 101.835 226.283C102.592 224.56 100.269 222.659 98.7754 221.571C97.2572 220.466 94.8314 219.777 92.727 219.653C90.5763 219.528 88.1875 220.809 85.8724 220.816C83.2163 220.824 79.2757 220.327 76.7882 219.701C74.7243 219.181 72.2963 218.254 70.9476 217.057C69.702 215.952 69.9915 212.9 68.6943 212.52C67.3975 212.141 64.9913 214.73 63.1666 214.781C61.3415 214.831 59.2972 211.66 57.745 212.822Z" fill="#FF9577"/>
<path fill-rule="evenodd" clip-rule="evenodd" d="M20.2636 124.977C19.158 125.606 18.2405 130.113 18.3444 131.995C18.4363 133.667 20.4062 134.671 20.886 136.27C21.37 137.883 21.6902 139.928 21.2491 141.675C20.76 143.613 18.1686 146.286 17.9506 147.898C17.7714 149.225 20.1631 150.129 19.9426 151.346C19.7221 152.563 17.5027 153.737 16.6266 155.201C15.67 156.799 14.3225 158.85 14.2033 160.934C14.079 163.1 14.331 166.57 15.882 168.2C17.4329 169.83 21.8703 171.137 23.5081 170.712C25.1458 170.287 24.7154 166.431 25.7095 165.65C26.7031 164.869 28.5925 165.389 29.4717 166.028C30.3512 166.666 29.994 169.629 30.9847 169.479C31.9754 169.33 34.4914 167.01 35.4165 165.131C36.6669 162.59 37.6997 156.949 38.4869 154.234C39.0105 152.429 39.9305 150.101 40.1404 148.844C40.26 148.125 39.492 147.374 39.744 146.692C40.2174 145.411 42.5126 143.262 42.9809 141.159C43.5203 138.738 43.1243 134.236 42.9804 132.161C42.8983 130.976 42.3427 129.876 42.1183 128.711C41.8786 127.464 42.5338 125.564 41.5415 124.679C40.4078 123.667 37.374 122.259 35.3156 122.639C33.2568 123.019 30.9123 126.028 29.1894 126.959C27.893 127.659 26.4068 128.54 24.9777 128.223C23.4902 127.893 21.3692 124.348 20.2636 124.977Z" fill="#FF9577"/>
<path fill-rule="evenodd" clip-rule="evenodd" d="M45.5559 44.0872C47.5308 43.5138 47.9046 33.2989 47.9046 33.2989C47.9046 33.2989 48.1448 24.9593 39.7494 24.1572C31.3536 23.3551 29.5234 25.594 28.7081 27.4817C27.8929 29.3694 28.2088 33.5517 31.698 36.6404C35.1873 39.7291 35.1847 37.1892 39.8022 40.0718C44.4196 42.9544 42.5941 44.9476 45.5559 44.0872Z" fill="#F8D576"/>
<path fill-rule="evenodd" clip-rule="evenodd" d="M92.1243 37.9404C94.1061 37.3933 94.6067 27.1843 94.6067 27.1843C94.6067 27.1843 94.9499 18.8486 86.5652 17.9345C78.1805 17.0201 76.3226 19.2343 75.4839 21.1109C74.6452 22.9875 74.9092 27.1733 78.3597 30.3088C81.8106 33.4438 81.8396 30.9039 86.4208 33.8483C91.0017 36.7922 89.1519 38.7612 92.1243 37.9404Z" fill="#F8D576"/>
<path fill-rule="evenodd" clip-rule="evenodd" d="M77.0378 77.1008C79.0264 76.5801 79.6535 66.3788 79.6535 66.3788C79.6535 66.3788 80.1 58.0482 71.7272 57.0217C63.3544 55.9953 61.4693 58.1844 60.6072 60.0495C59.7456 61.915 59.9576 66.1042 63.3689 69.2852C66.7807 72.4663 66.8407 69.9268 71.3854 72.9325C75.9296 75.9377 74.0555 77.8811 77.0378 77.1008Z" fill="#F8D576"/>
<path fill-rule="evenodd" clip-rule="evenodd" d="M84.5638 121.803C86.5455 121.256 87.0462 111.047 87.0462 111.047C87.0462 111.047 87.3893 102.711 79.0046 101.797C70.6199 100.883 68.762 103.097 67.9233 104.974C67.0847 106.85 67.3486 111.036 70.7991 114.172C74.2501 117.307 74.2786 114.767 78.8599 117.711C83.4411 120.655 81.5913 122.624 84.5638 121.803Z" fill="#F8D576"/>
<path fill-rule="evenodd" clip-rule="evenodd" d="M104.419 156.678C106.401 156.131 106.902 145.922 106.902 145.922C106.902 145.922 107.245 137.586 98.8601 136.672C90.4754 135.757 88.6175 137.972 87.7788 139.848C86.9401 141.725 87.2041 145.911 90.6546 149.046C94.1056 152.181 94.1341 149.642 98.7153 152.586C103.297 155.53 101.447 157.498 104.419 156.678Z" fill="#F8D576"/>
<path fill-rule="evenodd" clip-rule="evenodd" d="M68.4671 221.451C70.4493 220.904 70.9495 210.695 70.9495 210.695C70.9495 210.695 71.2926 202.36 62.9079 201.445C54.5232 200.531 52.6653 202.745 51.8267 204.622C50.988 206.498 51.2519 210.684 54.7029 213.82C58.1534 216.955 58.1824 214.415 62.7636 217.359C67.3449 220.303 65.4951 222.272 68.4671 221.451Z" fill="#F8D576"/>
</svg>
