<svg width="32" height="36" viewBox="0 0 32 36" fill="none" xmlns="http://www.w3.org/2000/svg">
<path fill-rule="evenodd" clip-rule="evenodd" d="M0 9.45345C0 9.12943 0.172891 8.83 0.453501 8.66797C2.73857 7.34868 12.9713 1.44081 15.2564 0.121522C15.537 -0.0405073 15.8827 -0.0405073 16.1634 0.121522C18.4485 1.44081 28.6812 7.34868 30.9663 8.66797C31.2469 8.83 31.4198 9.12943 31.4198 9.45345V26.5463C31.4198 26.8704 31.2469 27.1698 30.9663 27.3318C28.6812 28.6511 18.4485 34.559 16.1634 35.8783C15.8827 36.0403 15.537 36.0403 15.2564 35.8783C12.9713 34.559 2.73857 28.6511 0.453501 27.3318C0.172891 27.1698 0 26.8704 0 26.5463V9.45345Z" fill="#ABABFB"/>
<path fill-rule="evenodd" clip-rule="evenodd" d="M30.9668 8.66824C31.2474 8.83027 31.4203 9.1297 31.4203 9.45372V26.5466C31.4203 26.8707 31.2474 27.1701 30.9668 27.3321C28.6817 28.6514 18.449 34.5593 16.1639 35.8785C15.8833 36.0406 15.5375 36.0406 15.2569 35.8785L7.85547 31.6053V13.9888C7.85547 13.6648 8.02836 13.3653 8.30901 13.2033C10.8854 11.7158 23.5654 4.39502 23.5654 4.39502L30.9668 8.66824Z" fill="#7D7DF8"/>
<path fill-rule="evenodd" clip-rule="evenodd" d="M31.2983 9C31.3766 9.13564 31.4198 9.29151 31.4198 9.4535V26.5464C31.4198 26.8705 31.247 27.1698 30.9663 27.3319C28.6812 28.6512 18.4485 34.559 16.1635 35.8783C16.0232 35.9593 15.8665 35.9998 15.71 35.9998V18.5236C15.71 18.1996 15.8828 17.9001 16.1635 17.7381C18.728 16.2575 31.2983 9 31.2983 9Z" fill="#4C4CF6"/>
</svg>
