<svg width="80" height="92" viewBox="0 0 80 92" fill="none" xmlns="http://www.w3.org/2000/svg">
<path d="M39.3445 1.17544L39.3445 1.17541C39.7495 0.941543 40.2486 0.941508 40.6538 1.17544L78.3435 22.9356C78.7487 23.1696 78.9983 23.6019 78.9983 24.0695V67.59C78.9983 68.0577 78.7487 68.4899 78.3435 68.7239L40.6538 90.4841C40.2486 90.718 39.7495 90.718 39.3445 90.4841L38.8445 91.3501L39.3445 90.4841L1.65471 68.7239C1.65469 68.7239 1.65468 68.7239 1.65467 68.7239C1.24953 68.4899 1 68.0577 1 67.59V24.0695C1 23.6019 1.24955 23.1696 1.65467 22.9356C1.65468 22.9356 1.65469 22.9356 1.65471 22.9356L39.3445 1.17544Z" stroke="#ABABFB" stroke-width="2"/>
<path d="M59.1001 12.8648L60.0001 12.3451L78.345 22.9365C78.345 22.9365 78.345 22.9365 78.345 22.9366C78.7502 23.1705 78.9997 23.6028 78.9997 24.0704V67.5909C78.9997 68.0586 78.7502 68.4908 78.3451 68.7248C78.345 68.7248 78.345 68.7248 78.345 68.7248L40.6553 90.485C40.2501 90.7189 39.751 90.7189 39.346 90.485L38.8459 91.351L39.3459 90.485L21.001 79.8936V35.6172C21.001 35.1495 21.2505 34.7173 21.6557 34.4833L21.1557 33.6173L21.6557 34.4833L43.5379 21.8496L55.3532 15.0281L59.1001 12.8648Z" stroke="#7D7DF8" stroke-width="2"/>
<path d="M78.8017 24.5824L78.9991 24.4685V67.5901C78.9991 68.0579 78.7496 68.4901 78.3445 68.724C78.3444 68.724 78.3444 68.724 78.3444 68.724L41 90.2849V47.1632C41 46.6954 41.2495 46.2632 41.6547 46.0293L41.1547 45.1633L41.6547 46.0293L63.3708 33.4915L75.0868 26.7272L78.8017 24.5824Z" stroke="#4C4CF7" stroke-width="2"/>
</svg>
